<svg width="251" height="310" viewBox="0 0 251 310" fill="none" xmlns="http://www.w3.org/2000/svg">
<path d="M6.52886 215.923L125.457 9.93362L244.385 215.923L125.457 303.028L6.52886 215.923Z" fill="#4338CA" stroke="#D9D9D9" stroke-width="9.93363"/>
<path d="M197.328 188.452C200.853 197.374 202.844 206.882 203.209 216.531L125.871 297.605L48.5331 216.531C48.8986 206.882 50.889 197.374 54.4141 188.452C58.3343 178.531 64.0707 169.541 71.2777 161.986C78.4839 154.431 87.0176 148.461 96.3808 144.395C105.743 140.33 115.762 138.243 125.871 138.243C135.98 138.243 145.999 140.33 155.361 144.395C164.725 148.461 173.258 154.431 180.464 161.986C187.671 169.541 193.408 178.531 197.328 188.452Z" fill="#4338CA" stroke="#D9D9D9" stroke-width="16.5561"/>
<mask id="path-3-inside-1_1_72" fill="white">
<path d="M167.675 209.02C167.675 220.107 163.271 230.74 155.431 238.58C147.591 246.42 136.958 250.824 125.871 250.824C114.784 250.824 104.151 246.42 96.3112 238.58C88.4714 230.74 84.067 220.107 84.067 209.02L102.935 209.02C102.935 215.103 105.352 220.937 109.653 225.238C113.954 229.54 119.788 231.956 125.871 231.956C131.954 231.956 137.788 229.54 142.089 225.238C146.391 220.937 148.807 215.103 148.807 209.02H167.675Z"/>
</mask>
<path d="M167.675 209.02C167.675 220.107 163.271 230.74 155.431 238.58C147.591 246.42 136.958 250.824 125.871 250.824C114.784 250.824 104.151 246.42 96.3112 238.58C88.4714 230.74 84.067 220.107 84.067 209.02L102.935 209.02C102.935 215.103 105.352 220.937 109.653 225.238C113.954 229.54 119.788 231.956 125.871 231.956C131.954 231.956 137.788 229.54 142.089 225.238C146.391 220.937 148.807 215.103 148.807 209.02H167.675Z" fill="#4338CA" stroke="#D9D9D9" stroke-width="3.31121" mask="url(#path-3-inside-1_1_72)"/>
<mask id="path-4-inside-2_1_72" fill="white">
<path d="M167.675 209.02C167.675 197.933 163.271 187.3 155.431 179.46C147.591 171.62 136.958 167.216 125.871 167.216C114.784 167.216 104.151 171.62 96.3112 179.46C88.4714 187.3 84.067 197.933 84.067 209.02L102.935 209.02C102.935 202.937 105.352 197.103 109.653 192.802C113.954 188.501 119.788 186.084 125.871 186.084C131.954 186.084 137.788 188.501 142.089 192.802C146.391 197.103 148.807 202.937 148.807 209.02H167.675Z"/>
</mask>
<path d="M167.675 209.02C167.675 197.933 163.271 187.3 155.431 179.46C147.591 171.62 136.958 167.216 125.871 167.216C114.784 167.216 104.151 171.62 96.3112 179.46C88.4714 187.3 84.067 197.933 84.067 209.02L102.935 209.02C102.935 202.937 105.352 197.103 109.653 192.802C113.954 188.501 119.788 186.084 125.871 186.084C131.954 186.084 137.788 188.501 142.089 192.802C146.391 197.103 148.807 202.937 148.807 209.02H167.675Z" fill="#4338CA" stroke="#D9D9D9" stroke-width="3.31121" mask="url(#path-4-inside-2_1_72)"/>
</svg>
